<svg xmlns="http://www.w3.org/2000/svg" xmlns:xlink="http://www.w3.org/1999/xlink" width="300" zoomAndPan="magnify" viewBox="0 0 224.87999 225" height="300" preserveAspectRatio="xMidYMid meet" version="1.0"><defs><clipPath id="960e5786a0"><path d="M 22.488281 65 L 202.390625 65 L 202.390625 159.941406 L 22.488281 159.941406 Z M 22.488281 65 " clip-rule="nonzero"/></clipPath></defs><g clip-path="url(#960e5786a0)"><path fill="#ffffff" d="M 197.660156 65.152344 L 27.226562 65.152344 C 24.621094 65.152344 22.488281 67.277344 22.488281 69.871094 C 22.488281 119.328125 62.824219 159.539062 112.441406 159.539062 C 162.058594 159.539062 202.390625 119.328125 202.390625 69.871094 C 202.390625 67.277344 200.261719 65.152344 197.660156 65.152344 M 173.796875 74.589844 C 171.382812 106.207031 144.777344 131.21875 112.441406 131.21875 C 80.105469 131.21875 53.496094 106.207031 51.128906 74.589844 Z M 112.441406 150.097656 C 69.644531 150.097656 34.558594 116.636719 32.097656 74.589844 L 41.617188 74.589844 C 44.03125 111.445312 74.894531 140.660156 112.441406 140.660156 C 149.984375 140.660156 180.851562 111.445312 183.265625 74.589844 L 192.785156 74.589844 C 190.320312 116.636719 155.238281 150.097656 112.441406 150.097656 Z M 112.441406 150.097656 " fill-opacity="1" fill-rule="evenodd"/></g><path fill="#ffffff" d="M 119.539062 105.261719 C 119.539062 109.179688 116.367188 112.34375 112.441406 112.34375 C 108.511719 112.34375 105.339844 109.179688 105.339844 105.261719 C 105.339844 101.347656 108.507812 98.1875 112.441406 98.1875 C 116.371094 98.183594 119.539062 101.347656 119.539062 105.261719 " fill-opacity="1" fill-rule="evenodd"/><path fill="#ffffff" d="M 91.136719 91.105469 C 91.136719 95.023438 87.964844 98.183594 84.035156 98.183594 C 80.105469 98.183594 76.933594 95.023438 76.933594 91.105469 C 76.933594 87.1875 80.105469 84.027344 84.035156 84.027344 C 87.964844 84.027344 91.136719 87.191406 91.136719 91.105469 " fill-opacity="1" fill-rule="evenodd"/><path fill="#ffffff" d="M 147.949219 91.105469 C 147.949219 95.023438 144.777344 98.183594 140.847656 98.183594 C 136.917969 98.183594 133.746094 95.023438 133.746094 91.105469 C 133.746094 87.1875 136.914062 84.027344 140.847656 84.027344 C 144.777344 84.027344 147.949219 87.191406 147.949219 91.105469 " fill-opacity="1" fill-rule="evenodd"/></svg>