<svg xmlns="http://www.w3.org/2000/svg" xmlns:xlink="http://www.w3.org/1999/xlink" width="300" zoomAndPan="magnify" viewBox="0 0 224.87999 225" height="300" preserveAspectRatio="xMidYMid meet" version="1.0"><defs><clipPath id="a4f52bfeba"><path d="M 31.96875 32.027344 L 193.132812 32.027344 L 193.132812 193.191406 L 31.96875 193.191406 Z M 31.96875 32.027344 " clip-rule="nonzero"/></clipPath></defs><g clip-path="url(#a4f52bfeba)"><path fill="#ffffff" d="M 154.960938 61.71875 C 153.261719 61.71875 151.566406 61.84375 149.871094 62.054688 C 146.097656 44.667969 130.785156 32.027344 112.550781 32.027344 C 94.3125 32.027344 79.003906 44.667969 75.226562 62.054688 C 73.53125 61.84375 71.835938 61.71875 70.136719 61.71875 C 49.101562 61.71875 31.96875 78.851562 31.96875 99.886719 C 31.96875 116.171875 42.273438 130.550781 57.414062 135.894531 L 57.414062 180.464844 C 57.414062 187.464844 63.140625 193.191406 70.136719 193.191406 L 154.960938 193.191406 C 161.960938 193.191406 167.6875 187.464844 167.6875 180.464844 L 167.6875 135.894531 C 182.824219 130.550781 193.132812 116.171875 193.132812 99.886719 C 193.132812 78.851562 175.996094 61.71875 154.960938 61.71875 M 159.203125 180.464844 C 159.203125 182.800781 157.292969 184.707031 154.960938 184.707031 L 70.136719 184.707031 C 67.804688 184.707031 65.894531 182.800781 65.894531 180.464844 L 65.898438 176.226562 L 159.203125 176.226562 Z M 162.382812 128.640625 C 160.515625 129.148438 159.199219 130.804688 159.199219 132.753906 L 159.203125 167.746094 L 65.898438 167.746094 L 65.898438 132.753906 C 65.898438 130.804688 64.582031 129.148438 62.714844 128.640625 C 49.609375 125.25 40.449219 113.457031 40.449219 99.886719 C 40.449219 83.515625 53.769531 70.195312 70.136719 70.195312 C 72.683594 70.195312 75.226562 70.535156 77.6875 71.171875 C 78.875 71.46875 80.144531 71.257812 81.164062 70.535156 C 82.183594 69.8125 82.863281 68.667969 82.988281 67.4375 C 84.390625 52.085938 97.113281 40.507812 112.550781 40.507812 C 127.988281 40.507812 140.710938 52.085938 142.109375 67.4375 C 142.238281 68.667969 142.917969 69.816406 143.933594 70.535156 C 144.953125 71.253906 146.222656 71.46875 147.410156 71.171875 C 149.871094 70.535156 152.414062 70.195312 154.960938 70.195312 C 171.332031 70.195312 184.648438 83.515625 184.648438 99.886719 C 184.648438 113.457031 175.488281 125.25 162.382812 128.640625 Z M 162.382812 128.640625 " fill-opacity="1" fill-rule="evenodd"/></g></svg>