<svg xmlns="http://www.w3.org/2000/svg" xmlns:xlink="http://www.w3.org/1999/xlink" width="300" zoomAndPan="magnify" viewBox="0 0 224.87999 225" height="300" preserveAspectRatio="xMidYMid meet" version="1.0"><defs><clipPath id="bfafd7ca2f"><path d="M 22.488281 41.355469 L 202.390625 41.355469 L 202.390625 165 L 22.488281 165 Z M 22.488281 41.355469 " clip-rule="nonzero"/></clipPath><clipPath id="f75c071758"><path d="M 22.488281 174 L 202.390625 174 L 202.390625 183.78125 L 22.488281 183.78125 Z M 22.488281 174 " clip-rule="nonzero"/></clipPath></defs><g clip-path="url(#bfafd7ca2f)"><path fill="#ffffff" d="M 126.644531 61.667969 L 126.644531 55.789062 C 126.644531 51.949219 125.128906 48.351562 122.523438 45.792969 C 119.871094 43.085938 116.273438 41.574219 112.441406 41.574219 C 104.628906 41.574219 98.238281 47.972656 98.238281 55.789062 L 98.238281 61.667969 C 55.34375 68.492188 22.488281 105.738281 22.488281 150.570312 L 22.488281 160.046875 C 22.488281 162.652344 24.621094 164.789062 27.222656 164.789062 L 197.65625 164.789062 C 200.261719 164.789062 202.390625 162.652344 202.390625 160.046875 L 202.390625 150.570312 C 202.390625 105.738281 169.539062 68.492188 126.644531 61.667969 M 107.707031 55.789062 C 107.707031 53.183594 109.835938 51.050781 112.441406 51.050781 C 113.71875 51.050781 114.855469 51.527344 115.800781 52.519531 C 116.703125 53.375 117.175781 54.511719 117.175781 55.789062 L 117.175781 60.621094 C 115.613281 60.574219 114.003906 60.527344 112.441406 60.527344 C 110.878906 60.527344 109.273438 60.574219 107.707031 60.625 Z M 192.921875 155.308594 L 31.957031 155.308594 L 31.957031 150.570312 C 31.957031 106.164062 68.078125 70.007812 112.441406 70.007812 C 156.800781 70.003906 192.921875 106.167969 192.921875 150.570312 Z M 192.921875 155.308594 " fill-opacity="1" fill-rule="evenodd"/></g><g clip-path="url(#f75c071758)"><path fill="#ffffff" d="M 197.65625 183.742188 L 27.222656 183.742188 C 24.605469 183.742188 22.488281 181.621094 22.488281 179.003906 C 22.488281 176.386719 24.605469 174.265625 27.222656 174.265625 L 197.65625 174.265625 C 200.273438 174.265625 202.390625 176.390625 202.390625 179.003906 C 202.390625 181.617188 200.273438 183.742188 197.65625 183.742188 " fill-opacity="1" fill-rule="evenodd"/></g></svg>